<?xml version="1.0" encoding="UTF-8"?>
<svg version="1.1" xmlns="http://www.w3.org/2000/svg" width="500" height="500">
<path d="M0 0 C1.2065625 0.0309375 1.2065625 0.0309375 2.4375 0.0625 C2.60765625 0.67996094 2.7778125 1.29742187 2.953125 1.93359375 C4.65935424 7.8963204 6.77331117 13.46364631 9.4375 19.0625 C11.9628772 16.5371228 11.95281622 10.79067803 12.62109375 7.3828125 C13.4375 4.0625 13.4375 4.0625 15.4375 1.0625 C17.9125 1.5575 17.9125 1.5575 20.4375 2.0625 C21.81182457 5.88006824 21.11725039 9.13505329 20.4375 13.0625 C20.93378906 12.629375 21.43007812 12.19625 21.94140625 11.75 C25.37334348 8.93672318 27.60362528 7.19189435 32.0625 6.5 C35.6810104 7.10308507 38.28290678 8.21590885 41.4375 10.0625 C41.4375 11.3825 41.4375 12.7025 41.4375 14.0625 C38.374866 14.80495673 36.05433847 15.03561147 32.875 14.8125 C29.29804146 14.70184243 29.29804146 14.70184243 27.0625 17.375 C25.33031949 20.01694009 25.33031949 20.01694009 24.4375 23.0625 C25.13875 23.145 25.84 23.2275 26.5625 23.3125 C31.42107846 24.57995525 34.66673754 26.90635631 37.4375 31.0625 C40.38814148 31.2833564 43.12118231 31.34310989 46.0625 31.25 C46.86429687 31.23646484 47.66609375 31.22292969 48.4921875 31.20898438 C50.47424378 31.17359051 52.45595551 31.11978234 54.4375 31.0625 C54.4375 33.0425 54.4375 35.0225 54.4375 37.0625 C55.9225 37.5575 55.9225 37.5575 57.4375 38.0625 C57.4375 39.3825 57.4375 40.7025 57.4375 42.0625 C58.0975 42.0625 58.7575 42.0625 59.4375 42.0625 C59.7675 43.0525 60.0975 44.0425 60.4375 45.0625 C59.963125 45.68125 59.48875 46.3 59 46.9375 C57.1046046 49.51523775 57.17706012 50.93722142 57.4375 54.0625 C50.6875 53.1875 50.6875 53.1875 48.4375 52.0625 C48.47875 53.114375 48.52 54.16625 48.5625 55.25 C48.5749205 62.18064123 47.63033496 69.48399513 45.4375 76.0625 C45.746875 76.64 46.05625 77.2175 46.375 77.8125 C48.30308958 81.89551322 47.97194453 85.44079055 46.5925293 89.62646484 C45.39989922 92.57677692 44.12547696 95.47629298 42.8125 98.375 C42.38582031 99.35662109 41.95914063 100.33824219 41.51953125 101.34960938 C32.30596301 122.12826849 32.30596301 122.12826849 24.4375 126.0625 C17.80057788 126.91842442 11.95217093 125.93612698 6.4375 122.0625 C3.1129732 118.62603627 0.2838679 114.89799389 -2.5625 111.0625 C-3.70718728 109.64490714 -4.85294914 108.22818104 -6 106.8125 C-9.12783252 102.75953391 -12.01578799 98.55695535 -14.875 94.3125 C-15.30804443 93.6740918 -15.74108887 93.03568359 -16.18725586 92.37792969 C-19.89704968 86.79971024 -21.5625 82.84395327 -21.5625 76.0625 C-22.2225 75.0725 -22.8825 74.0825 -23.5625 73.0625 C-24.06115545 70.66895385 -24.37224537 68.48714038 -24.5625 66.0625 C-24.62824219 65.23234375 -24.69398438 64.4021875 -24.76171875 63.546875 C-25.05486515 56.47092749 -23.96058292 50.3390813 -20.5625 44.0625 C-19.06640625 42.578125 -19.06640625 42.578125 -17.5 41.4375 C-14.38151803 38.91617415 -14.1444347 38.38635185 -13.1875 34.75 C-11.62366285 29.09175287 -7.98874495 25.74633868 -3.5625 22.0625 C-2.9025 21.7325 -2.2425 21.4025 -1.5625 21.0625 C-2.9720321 17.65613077 -4.29290054 15.82305356 -7.5625 14.0625 C-10.55266821 13.52540588 -13.53189277 13.25029404 -16.5625 13.0625 C-16.5625 11.4125 -16.5625 9.7625 -16.5625 8.0625 C-13.74294739 6.14520423 -12.48630446 6.06918382 -9 6.375 C-5.5625 7.0625 -5.5625 7.0625 -2.5625 8.0625 C-2.748125 6.928125 -2.93375 5.79375 -3.125 4.625 C-3.269375 3.449375 -3.41375 2.27375 -3.5625 1.0625 C-2.5625 0.0625 -2.5625 0.0625 0 0 Z M20.4375 35.0625 C20.4375 35.3925 20.4375 35.7225 20.4375 36.0625 C22.0875 36.0625 23.7375 36.0625 25.4375 36.0625 C25.4375 35.7325 25.4375 35.4025 25.4375 35.0625 C23.7875 35.0625 22.1375 35.0625 20.4375 35.0625 Z M12.4375 44.0625 C12.1075 44.3925 11.7775 44.7225 11.4375 45.0625 C11.5393371 46.97674457 11.5393371 46.97674457 11.875 49.125 C12.060625 50.424375 12.24625 51.72375 12.4375 53.0625 C14.48586882 52.49887698 14.48586882 52.49887698 16.4375 51.0625 C17.25334568 48.00341587 17.25334568 48.00341587 17.4375 45.0625 C15.78135343 44.68031233 14.11292976 44.34854898 12.4375 44.0625 Z " fill="#713D03" transform="translate(229.5625,140.9375)"/>
<path d="M0 0 C3.90943572 2.13873215 6.32916294 4.67016953 8.51171875 8.515625 C9.44741052 12.1733292 9.32708544 15.43105751 9.19921875 19.203125 C4.57921875 19.203125 -0.04078125 19.203125 -4.80078125 19.203125 C-5.46078125 17.223125 -6.12078125 15.243125 -6.80078125 13.203125 C-10.27341398 11.46680864 -14.01271138 11.60122098 -17.80078125 12.203125 C-20.55647572 14.38471645 -22.23666872 16.07489994 -23.80078125 19.203125 C-23.95222689 21.80100029 -24.03215106 24.35421321 -24.05078125 26.953125 C-24.07140625 27.65695312 -24.09203125 28.36078125 -24.11328125 29.0859375 C-24.14878805 33.86160178 -23.37593991 37.03984638 -20.80078125 41.203125 C-17.29905447 44.05638386 -13.09839652 43.40777335 -8.80078125 43.203125 C-7.31578125 42.708125 -7.31578125 42.708125 -5.80078125 42.203125 C-5.14078125 40.553125 -4.48078125 38.903125 -3.80078125 37.203125 C0.48921875 37.203125 4.77921875 37.203125 9.19921875 37.203125 C9.61986768 43.30253455 9.28886531 46.33976153 5.19921875 51.203125 C-0.23804413 56.22213689 -5.17915064 57.61296509 -12.48828125 57.640625 C-13.19146484 57.64449219 -13.89464844 57.64835937 -14.61914062 57.65234375 C-20.87328831 57.51476397 -25.59382439 55.7078075 -30.80078125 52.203125 C-30.80078125 51.543125 -30.80078125 50.883125 -30.80078125 50.203125 C-31.46078125 50.203125 -32.12078125 50.203125 -32.80078125 50.203125 C-39.62956275 39.1780312 -40.7369186 30.12473734 -38.80078125 17.203125 C-36.84214091 10.36727628 -33.47123177 4.25857729 -27.1640625 0.7265625 C-17.47147301 -3.71639145 -9.80143093 -4.36986873 0 0 Z " fill="#734411" transform="translate(302.80078125,300.796875)"/>
<path d="M0 0 C3.98340305 -0.09973852 7.96631108 -0.17187198 11.95068359 -0.21972656 C13.96347627 -0.24946045 15.97592134 -0.30031729 17.98828125 -0.3515625 C25.48754228 -0.42693196 30.69550026 -0.21321368 37 4 C41.42007975 8.76008589 42.0947283 13.71004075 42 20 C41.4023011 25.10467166 40.33235892 29.97818751 37 34 C30.01301398 39.11454312 23.39873166 39.14677395 15 39 C14.93941406 40.28777344 14.87882812 41.57554687 14.81640625 42.90234375 C14.73201753 44.58074159 14.6473687 46.25912636 14.5625 47.9375 C14.52318359 48.78763672 14.48386719 49.63777344 14.44335938 50.51367188 C14.40146484 51.32255859 14.35957031 52.13144531 14.31640625 52.96484375 C14.26141968 54.08814087 14.26141968 54.08814087 14.20532227 55.23413086 C14 57 14 57 13 58 C10.81360547 58.07258946 8.62499611 58.08373783 6.4375 58.0625 C4.64119141 58.04896484 4.64119141 58.04896484 2.80859375 58.03515625 C1.88175781 58.02355469 0.95492187 58.01195312 0 58 C-1.03701461 54.88895616 -1.08877082 52.86587192 -1.02172852 49.6105957 C-1.00163223 48.50968094 -0.98153595 47.40876617 -0.96083069 46.27449036 C-0.93379562 45.08691635 -0.90676056 43.89934235 -0.87890625 42.67578125 C-0.85529526 41.45924362 -0.83168427 40.24270599 -0.80735779 38.98930359 C-0.73067585 35.09691836 -0.64667058 31.20472981 -0.5625 27.3125 C-0.50928388 24.67644197 -0.45654345 22.0403743 -0.40429688 19.40429688 C-0.2750545 12.93607575 -0.1397963 6.46800116 0 0 Z M14 12 C14 16.95 14 21.9 14 27 C19.92371787 27.39905819 19.92371787 27.39905819 25.5 25.875 C27.60054222 23.24932222 27.8663939 21.34015247 28 18 C27.01200217 14.70372434 27.01200217 14.70372434 25 12 C21.3308423 11.85689713 17.67284559 11.95778338 14 12 Z " fill="#72420A" transform="translate(66,300)"/>
<path d="M0 0 C3.90646334 2.37058886 5.75424666 5.09023168 6.87060547 9.53417969 C7.39542246 12.83385778 7.44223389 15.9865171 7.4453125 19.328125 C7.44626923 19.98455994 7.44722595 20.64099487 7.44821167 21.31732178 C7.4488888 22.69559831 7.44706723 24.07387812 7.44287109 25.45214844 C7.43748159 27.56973313 7.44284936 29.68710904 7.44921875 31.8046875 C7.44855856 33.1458338 7.44727862 34.48697998 7.4453125 35.828125 C7.44418457 37.04790039 7.44305664 38.26767578 7.44189453 39.52441406 C7.3125 42.3125 7.3125 42.3125 6.3125 43.3125 C4.29285801 43.38494053 2.27082876 43.39627188 0.25 43.375 C-0.85472656 43.36597656 -1.95945312 43.35695313 -3.09765625 43.34765625 C-3.95230469 43.33605469 -4.80695313 43.32445312 -5.6875 43.3125 C-6.3475 41.9925 -7.0075 40.6725 -7.6875 39.3125 C-8.30625 39.9725 -8.925 40.6325 -9.5625 41.3125 C-13.94888694 44.11978764 -17.60853932 44.11015729 -22.6875 43.3125 C-26.45016417 41.53378603 -28.20546464 39.98112969 -30.625 36.625 C-32.03279429 32.23599426 -32.02385231 28.72898142 -30.6875 24.3125 C-27.08694549 19.61177605 -23.52437612 17.94291692 -17.875 16.6875 C-14.1013363 16.24353956 -10.48591777 16.24701004 -6.6875 16.3125 C-7.1825 13.8375 -7.1825 13.8375 -7.6875 11.3125 C-12.16883574 10.58993171 -12.16883574 10.58993171 -16.6875 10.3125 C-17.0175 12.2925 -17.3475 14.2725 -17.6875 16.3125 C-21.9775 16.3125 -26.2675 16.3125 -30.6875 16.3125 C-29.91462934 5.95603312 -29.91462934 5.95603312 -26.6875 2.3125 C-19.50604564 -3.43266349 -8.20118868 -3.71403184 0 0 Z M-16.6875 26.3125 C-17.98383621 27.37895115 -17.98383621 27.37895115 -17.75 29.875 C-17.729375 30.679375 -17.70875 31.48375 -17.6875 32.3125 C-14.88879973 33.71185013 -12.78251208 33.56515405 -9.6875 33.3125 C-7.66798938 32.37652685 -7.66798938 32.37652685 -6.6875 30.3125 C-6.4371423 26.68714024 -6.4371423 26.68714024 -6.6875 23.3125 C-10.57168324 23.3125 -13.1905733 24.69355245 -16.6875 26.3125 Z " fill="#703F08" transform="translate(347.6875,314.6875)"/>
<path d="M0 0 C4.61907893 2.78925109 6.5191065 6.72717057 8.125 11.8125 C8.49302942 15.6768089 8.647271 19.56164226 8.375 23.4375 C7.375 24.4375 7.375 24.4375 4.87475586 24.55102539 C3.79073486 24.54578857 2.70671387 24.54055176 1.58984375 24.53515625 C0.42001953 24.53193359 -0.74980469 24.52871094 -1.95507812 24.52539062 C-3.18677734 24.51701172 -4.41847656 24.50863281 -5.6875 24.5 C-7.54084961 24.49323242 -7.54084961 24.49323242 -9.43164062 24.48632812 C-12.49614117 24.47449608 -15.56054721 24.45801173 -18.625 24.4375 C-16.9922149 28.18417202 -16.9922149 28.18417202 -14.625 31.4375 C-12.29202567 31.47842937 -9.95794775 31.47991723 -7.625 31.4375 C-6.965 30.1175 -6.305 28.7975 -5.625 27.4375 C-1.335 27.4375 2.955 27.4375 7.375 27.4375 C6.43382353 35.59436275 6.43382353 35.59436275 4.375 38.4375 C-2.81090268 43.78870412 -8.86152055 44.15394559 -17.625 43.4375 C-23.60894326 41.92221114 -26.93527177 38.41551989 -30.49609375 33.53515625 C-33.65585651 27.66390158 -33.5569432 19.50104645 -32.09375 13.12109375 C-29.99093051 7.09834444 -26.73198867 2.23209983 -20.94140625 -0.83203125 C-14.390413 -2.8978588 -6.32934762 -2.74311313 0 0 Z M-17.125 11.375 C-17.62 12.055625 -18.115 12.73625 -18.625 13.4375 C-18.295 14.4275 -17.965 15.4175 -17.625 16.4375 C-11.685 15.9425 -11.685 15.9425 -5.625 15.4375 C-5.955 13.7875 -6.285 12.1375 -6.625 10.4375 C-12.26856472 9.01204851 -12.26856472 9.01204851 -17.125 11.375 Z " fill="#704312" transform="translate(425.625,314.5625)"/>
<path d="M0 0 C1.77697266 -0.02513672 1.77697266 -0.02513672 3.58984375 -0.05078125 C8.71279291 0.48514032 11.95436425 2.35547367 15.8125 5.6875 C19.40005507 10.28514339 19.93801164 16.64461824 20.0625 22.3125 C19.4025 23.6325 18.7425 24.9525 18.0625 26.3125 C9.8125 26.3125 1.5625 26.3125 -6.9375 26.3125 C-4.95195596 33.14180139 -4.95195596 33.14180139 -1.89453125 34.21484375 C0.09114583 34.24739583 2.07682292 34.27994792 4.0625 34.3125 C4.7225 32.6625 5.3825 31.0125 6.0625 29.3125 C10.3525 29.3125 14.6425 29.3125 19.0625 29.3125 C17.72321429 38.28571429 17.72321429 38.28571429 14.1875 41.25 C7.17578725 45.87773041 1.45572921 46.19696762 -6.9375 45.3125 C-12.02092035 43.71097235 -15.6507824 41.33523748 -18.4375 36.75 C-21.77512554 29.10127481 -22.44870616 19.89216813 -19.8125 11.875 C-17.67484988 7.10562024 -14.33184484 3.52414601 -9.67578125 1.16796875 C-6.35182641 0.12952922 -3.4803886 0.01133677 0 0 Z M-6.9375 15.3125 C-6.6075 16.3025 -6.2775 17.2925 -5.9375 18.3125 C0.0025 17.8175 0.0025 17.8175 6.0625 17.3125 C5.4885261 13.11069816 5.4885261 13.11069816 2.0625 11.3125 C-2.47000052 10.61519223 -4.04908824 11.88919718 -6.9375 15.3125 Z " fill="#734817" transform="translate(239.9375,312.6875)"/>
<path d="M0 0 C1.62490954 -0.02698189 3.24994633 -0.04638757 4.875 -0.0625 C5.77992187 -0.07410156 6.68484375 -0.08570313 7.6171875 -0.09765625 C10 0 10 0 12 1 C12.33 11.56 12.66 22.12 13 33 C18.57836298 33.31622777 18.57836298 33.31622777 22 32 C22.02505615 31.06615479 22.0501123 30.13230957 22.07592773 29.17016602 C22.17086928 25.71674811 22.27011258 22.2635104 22.37231445 18.81030273 C22.41571813 17.31360731 22.45738913 15.81686061 22.49731445 14.32006836 C22.55488616 12.17285688 22.61861716 10.02590479 22.68359375 7.87890625 C22.72025146 6.5854126 22.75690918 5.29191895 22.79467773 3.95922852 C23 1 23 1 24 0 C25.4555937 -0.09858603 26.91607919 -0.12972143 28.375 -0.125 C29.16648438 -0.12757813 29.95796875 -0.13015625 30.7734375 -0.1328125 C33 0 33 0 36 1 C36.16720361 7.10539632 36.32780433 13.21091617 36.48217773 19.31665039 C36.53568107 21.39547448 36.59101658 23.47425222 36.64819336 25.55297852 C36.72987259 28.53391523 36.80504838 31.51495431 36.87890625 34.49609375 C36.90594131 35.43150497 36.93297638 36.3669162 36.96083069 37.33067322 C36.98092697 38.19149002 37.00102325 39.05230682 37.02172852 39.93920898 C37.04171402 40.70087875 37.06169952 41.46254852 37.08229065 42.24729919 C37 44 37 44 36 45 C34.14712498 45.07226502 32.29166122 45.0838122 30.4375 45.0625 C29.42558594 45.05347656 28.41367188 45.04445313 27.37109375 45.03515625 C26.19740234 45.01775391 26.19740234 45.01775391 25 45 C24.34 43.35 23.68 41.7 23 40 C22.319375 40.804375 21.63875 41.60875 20.9375 42.4375 C17.40763605 45.51674302 15.64097698 45.91998316 11 46 C6.66697644 45.32763427 4.00238938 44.39100232 1.125 41.125 C-3.14833564 34.84068289 -2.18361194 28.06315904 -2.1875 20.6875 C-2.19974609 19.47642578 -2.21199219 18.26535156 -2.22460938 17.01757812 C-2.23454432 10.96719946 -2.12786386 5.69392819 0 0 Z " fill="#71400A" transform="translate(114,313)"/>
<path d="M0 0 C4.19269413 2.15470362 6.12124864 4.94438027 7.63671875 9.3125 C7.63671875 10.9625 7.63671875 12.6125 7.63671875 14.3125 C3.34671875 14.3125 -0.94328125 14.3125 -5.36328125 14.3125 C-6.02328125 12.9925 -6.68328125 11.6725 -7.36328125 10.3125 C-9.01328125 10.3125 -10.66328125 10.3125 -12.36328125 10.3125 C-12.12837509 12.27683448 -12.12837509 12.27683448 -11.36328125 14.3125 C-8.73546135 15.50021521 -6.28152928 16.44286546 -3.55078125 17.3125 C5.89152811 20.36761165 5.89152811 20.36761165 8.63671875 24.3125 C9.61386369 29.53591449 9.50004305 34.62038438 7.07421875 39.375 C-0.12537474 45.0977538 -7.37664353 45.24429423 -16.36328125 44.3125 C-20.69124238 43.09280186 -23.42984782 41.3917824 -26.36328125 38 C-27.61939415 34.62419659 -27.63810116 31.88515885 -27.36328125 28.3125 C-25.70435653 26.65357528 -23.76280707 27.06263187 -21.48828125 27 C-20.60398438 26.96261719 -19.7196875 26.92523438 -18.80859375 26.88671875 C-16.36328125 27.3125 -16.36328125 27.3125 -14.54296875 29.20703125 C-13.36328125 31.3125 -13.36328125 31.3125 -13.36328125 33.3125 C-11.05328125 33.3125 -8.74328125 33.3125 -6.36328125 33.3125 C-6.36328125 31.9925 -6.36328125 30.6725 -6.36328125 29.3125 C-7.00394531 29.14234375 -7.64460938 28.9721875 -8.3046875 28.796875 C-21.80957756 25.0130906 -21.80957756 25.0130906 -25.92578125 19.1875 C-27.94497819 15.17510436 -27.29419569 11.78565858 -26.1953125 7.55078125 C-24.75382912 3.67298792 -22.80495764 2.01164926 -19.15625 0.2421875 C-13.24688001 -1.72484755 -5.98410233 -1.74082977 0 0 Z " fill="#6F410E" transform="translate(206.36328125,313.6875)"/>
<path d="M0 0 C1.65322266 0.01740234 1.65322266 0.01740234 3.33984375 0.03515625 C4.99693359 0.04869141 4.99693359 0.04869141 6.6875 0.0625 C7.54214844 0.07410156 8.39679688 0.08570313 9.27734375 0.09765625 C9.42277564 5.87354579 9.56501936 11.64950296 9.70458984 17.42553711 C9.75226374 19.38128665 9.80073703 21.33701691 9.85009766 23.29272461 C10.10748633 33.51210558 10.32767671 43.73030306 10.37109375 53.953125 C10.37757935 54.76332596 10.38406494 55.57352692 10.39074707 56.40827942 C10.39230242 58.30511442 10.34054988 60.20187398 10.27734375 62.09765625 C9.27734375 63.09765625 9.27734375 63.09765625 6.58984375 63.23046875 C5.49671875 63.22789062 4.40359375 63.2253125 3.27734375 63.22265625 C2.18421875 63.22523438 1.09109375 63.2278125 -0.03515625 63.23046875 C-2.72265625 63.09765625 -2.72265625 63.09765625 -3.72265625 62.09765625 C-3.8218142 60.20066776 -3.85064939 58.29996838 -3.85205078 56.40039062 C-3.85520294 55.18242798 -3.8583551 53.96446533 -3.86160278 52.70959473 C-3.859813 51.3701982 -3.85776205 50.03080201 -3.85546875 48.69140625 C-3.85614185 47.32759585 -3.85711192 45.96378557 -3.85836792 44.59997559 C-3.85984463 41.73835104 -3.85769122 38.87675765 -3.85302734 36.01513672 C-3.84733006 32.33947011 -3.85060921 28.66387651 -3.85659981 24.98821259 C-3.86020616 22.17103521 -3.8590665 19.35387527 -3.85647202 16.53669739 C-3.85580295 15.18105562 -3.85663046 13.82541229 -3.85895157 12.46977234 C-3.86147926 10.57815581 -3.85694639 8.68653376 -3.85205078 6.79492188 C-3.85125519 5.71650024 -3.85045959 4.63807861 -3.84963989 3.52697754 C-3.66932211 0.07732195 -3.48038756 0.12483456 0 0 Z " fill="#723E07" transform="translate(162.72265625,294.90234375)"/>
<path d="M0 0 C1.2065625 0.0309375 1.2065625 0.0309375 2.4375 0.0625 C2.60765625 0.67996094 2.7778125 1.29742187 2.953125 1.93359375 C4.65935424 7.8963204 6.77331117 13.46364631 9.4375 19.0625 C11.9628772 16.5371228 11.95281622 10.79067803 12.62109375 7.3828125 C13.4375 4.0625 13.4375 4.0625 15.4375 1.0625 C17.9125 1.5575 17.9125 1.5575 20.4375 2.0625 C21.81182457 5.88006824 21.11725039 9.13505329 20.4375 13.0625 C20.93378906 12.629375 21.43007812 12.19625 21.94140625 11.75 C25.37334348 8.93672318 27.60362528 7.19189435 32.0625 6.5 C35.6810104 7.10308507 38.28290678 8.21590885 41.4375 10.0625 C41.4375 11.3825 41.4375 12.7025 41.4375 14.0625 C38.374866 14.80495673 36.05433847 15.03561147 32.875 14.8125 C29.29804146 14.70184243 29.29804146 14.70184243 27.0625 17.375 C25.33031949 20.01694009 25.33031949 20.01694009 24.4375 23.0625 C25.13875 23.145 25.84 23.2275 26.5625 23.3125 C31.42107846 24.57995525 34.66673754 26.90635631 37.4375 31.0625 C41.02107241 31.31265873 41.02107241 31.31265873 44.4375 31.0625 C44.4375 31.7225 44.4375 32.3825 44.4375 33.0625 C40.81776598 34.37876692 38.34182869 35.0625 34.4375 35.0625 C33.7775 35.7225 33.1175 36.3825 32.4375 37.0625 C31.4475 37.0625 30.4575 37.0625 29.4375 37.0625 C28.08381404 38.37516518 26.74950404 39.70817325 25.4375 41.0625 C24.7775 41.0625 24.1175 41.0625 23.4375 41.0625 C23.4375 40.4025 23.4375 39.7425 23.4375 39.0625 C20.7975 38.4025 18.1575 37.7425 15.4375 37.0625 C15.7675 35.7425 16.0975 34.4225 16.4375 33.0625 C13.1375 33.0625 9.8375 33.0625 6.4375 33.0625 C6.7675 32.4025 7.0975 31.7425 7.4375 31.0625 C8.72437011 27.20188967 8.57507618 24.12099717 8.4375 20.0625 C7.4475 20.3925 6.4575 20.7225 5.4375 21.0625 C5.1075 20.0725 4.7775 19.0825 4.4375 18.0625 C3.7775 17.4025 3.1175 16.7425 2.4375 16.0625 C2.7675 15.0725 3.0975 14.0825 3.4375 13.0625 C3.04817144 10.91994207 3.04817144 10.91994207 2.4375 9.0625 C1.4475 9.5575 1.4475 9.5575 0.4375 10.0625 C0.7675 8.0825 1.0975 6.1025 1.4375 4.0625 C0.7775 4.0625 0.1175 4.0625 -0.5625 4.0625 C-0.5625 5.7125 -0.5625 7.3625 -0.5625 9.0625 C-2.5425 10.0525 -2.5425 10.0525 -4.5625 11.0625 C-4.5625 10.4025 -4.5625 9.7425 -4.5625 9.0625 C-7.8625 8.7325 -11.1625 8.4025 -14.5625 8.0625 C-14.5625 9.3825 -14.5625 10.7025 -14.5625 12.0625 C-12.2525 12.0625 -9.9425 12.0625 -7.5625 12.0625 C-7.5625 12.3925 -7.5625 12.7225 -7.5625 13.0625 C-10.5325 13.0625 -13.5025 13.0625 -16.5625 13.0625 C-16.5625 11.4125 -16.5625 9.7625 -16.5625 8.0625 C-13.74294739 6.14520423 -12.48630446 6.06918382 -9 6.375 C-5.5625 7.0625 -5.5625 7.0625 -2.5625 8.0625 C-2.8409375 6.3609375 -2.8409375 6.3609375 -3.125 4.625 C-3.269375 3.449375 -3.41375 2.27375 -3.5625 1.0625 C-2.5625 0.0625 -2.5625 0.0625 0 0 Z M20.4375 35.0625 C20.4375 35.3925 20.4375 35.7225 20.4375 36.0625 C22.0875 36.0625 23.7375 36.0625 25.4375 36.0625 C25.4375 35.7325 25.4375 35.4025 25.4375 35.0625 C23.7875 35.0625 22.1375 35.0625 20.4375 35.0625 Z " fill="#734412" transform="translate(229.5625,140.9375)"/>
<path d="M0 0 C0.66 0.33 1.32 0.66 2 1 C2.625 3.0625 2.625 3.0625 3 5 C3.825 4.175 4.65 3.35 5.5 2.5 C8.16275632 0.2385682 9.88440321 -0.34355513 13.375 -0.3125 C15.169375 -0.1578125 15.169375 -0.1578125 17 0 C17 4.62 17 9.24 17 14 C14.6178125 14.185625 14.6178125 14.185625 12.1875 14.375 C8.50657469 14.66182535 7.16240582 14.89172945 4 17 C3.48853802 19.90613434 3.48853802 19.90613434 3.48828125 23.3203125 C3.45283203 24.57714844 3.41738281 25.83398438 3.38085938 27.12890625 C3.34702148 29.10697266 3.34702148 29.10697266 3.3125 31.125 C3.27933471 32.46487759 3.24484578 33.80472311 3.20898438 35.14453125 C3.12627223 38.42938482 3.06146727 41.71468022 3 45 C-1.29 45 -5.58 45 -10 45 C-11.71802382 41.56395235 -11.1196618 37.61561104 -11.09765625 33.8359375 C-11.0962413 32.92872955 -11.09482635 32.02152161 -11.09336853 31.08682251 C-11.08776096 28.18284845 -11.07520718 25.27895085 -11.0625 22.375 C-11.05748598 20.40885528 -11.0529229 18.44270935 -11.04882812 16.4765625 C-11.03778906 11.6510121 -11.02051935 6.82551903 -11 2 C-7.09778382 0.32383584 -4.27423355 -0.2849489 0 0 Z " fill="#764A16" transform="translate(373,313)"/>
<path d="M0 0 C0.99 0 1.98 0 3 0 C2.67 1.65 2.34 3.3 2 5 C5.96 5 9.92 5 14 5 C12.68 5.33 11.36 5.66 10 6 C9.67 6.99 9.34 7.98 9 9 C6.525 8.505 6.525 8.505 4 8 C3.67 9.32 3.34 10.64 3 12 C7.95 12.33 12.9 12.66 18 13 C18 13.33 18 13.66 18 14 C12.39 14 6.78 14 1 14 C2.65077902 17.75170424 2.65077902 17.75170424 5 21 C7.33297433 21.04092937 9.66705225 21.04241723 12 21 C12.66 19.68 13.32 18.36 14 17 C18.29 17 22.58 17 27 17 C26.05882353 25.15686275 26.05882353 25.15686275 24 28 C16.81409732 33.35120412 10.76347945 33.71644559 2 33 C-3.98778899 31.4837373 -7.35037342 27.93819726 -10.96875 23.09765625 C-12.20575893 20.58146762 -12.19262543 18.76899051 -12 16 C-10 18 -10 18 -10 21 C-9.34 21 -8.68 21 -8 21 C-8.350625 20.278125 -8.70125 19.55625 -9.0625 18.8125 C-10.10409017 15.6877295 -9.89096572 14.11838004 -9 11 C-8.34 11 -7.68 11 -7 11 C-7 10.34 -7 9.68 -7 9 C-6.21625 8.814375 -5.4325 8.62875 -4.625 8.4375 C-1.60623658 7.16038373 -1.60623658 7.16038373 -0.6875 3.375 C-0.460625 2.26125 -0.23375 1.1475 0 0 Z " fill="#734616" transform="translate(406,325)"/>
<path d="M0 0 C3.79692749 3.79692749 3.12810005 8.90059776 3.1328125 14.015625 C3.13376923 14.67205994 3.13472595 15.32849487 3.13571167 16.00482178 C3.1363888 17.38309831 3.13456723 18.76137812 3.13037109 20.13964844 C3.12498159 22.25723313 3.13034936 24.37460904 3.13671875 26.4921875 C3.13605856 27.8333338 3.13477862 29.17447998 3.1328125 30.515625 C3.13168457 31.73540039 3.13055664 32.95517578 3.12939453 34.21191406 C3 37 3 37 2 38 C-0.01964199 38.07244053 -2.04167124 38.08377188 -4.0625 38.0625 C-5.16722656 38.05347656 -6.27195312 38.04445313 -7.41015625 38.03515625 C-8.26480469 38.02355469 -9.11945313 38.01195312 -10 38 C-10.66 36.68 -11.32 35.36 -12 34 C-12.61875 34.66 -13.2375 35.32 -13.875 36 C-18.26138694 38.80728764 -21.92103932 38.79765729 -27 38 C-30.76266417 36.22128603 -32.51796464 34.66862969 -34.9375 31.3125 C-36.34529429 26.92349426 -36.33635231 23.41648142 -35 19 C-31.39944549 14.29927605 -27.83687612 12.63041692 -22.1875 11.375 C-18.4138363 10.93103956 -14.79841777 10.93451004 -11 11 C-11.33 9.35 -11.66 7.7 -12 6 C-13.98 5.34 -15.96 4.68 -18 4 C-18 3.67 -18 3.34 -18 3 C-15.36 3 -12.72 3 -10 3 C-10 6.3 -10 9.6 -10 13 C-11.32 13 -12.64 13 -14 13 C-14 13.99 -14 14.98 -14 16 C-13.34 16.33 -12.68 16.66 -12 17 C-12.95712891 17.45439453 -12.95712891 17.45439453 -13.93359375 17.91796875 C-14.75988281 18.33691406 -15.58617187 18.75585938 -16.4375 19.1875 C-17.67306641 19.79658203 -17.67306641 19.79658203 -18.93359375 20.41796875 C-21.24690712 21.86633187 -21.24690712 21.86633187 -21.78515625 24.67578125 C-21.85605469 25.44277344 -21.92695313 26.20976562 -22 27 C-17.9899066 27.17864631 -17.9899066 27.17864631 -14 27 C-11.23776722 24.23776722 -11.42143709 21.79293383 -11 18 C-10.67 18 -10.34 18 -10 18 C-9.86741573 25.95505618 -9.86741573 25.95505618 -11 30 C-10.67 30.33 -10.34 30.66 -10 31 C-10 32.65 -10 34.3 -10 36 C-6.37 36 -2.74 36 1 36 C0.67 24.12 0.34 12.24 0 0 Z " fill="#714210" transform="translate(352,320)"/>
<path d="M0 0 C3.63 0 7.26 0 11 0 C11.33 11.22 11.66 22.44 12 34 C13.65 34.33 15.3 34.66 17 35 C17.33 35.99 17.66 36.98 18 38 C18.66 38.33 19.32 38.66 20 39 C19.4375 40.9375 19.4375 40.9375 18 43 C12.80831721 44.42516782 8.97474431 43.9711251 4 42 C1.81738281 40.46191406 1.81738281 40.46191406 0 38 C-0.34890086 34.97094023 -0.46754756 32.31696713 -0.390625 29.296875 C-0.38496521 28.45908508 -0.37930542 27.62129517 -0.37347412 26.75811768 C-0.35112329 24.08815834 -0.30093098 21.41955213 -0.25 18.75 C-0.22993325 16.93751941 -0.21168278 15.12501774 -0.1953125 13.3125 C-0.15126294 8.87448041 -0.08224566 4.43746944 0 0 Z " fill="#703D03" transform="translate(114,315)"/>
<path d="M0 0 C2.475 0.495 2.475 0.495 5 1 C5 1.66 5 2.32 5 3 C6.0828125 2.938125 6.0828125 2.938125 7.1875 2.875 C10.43373558 3.01927714 13.61965813 3.61965813 16 6 C16.49505942 11.29145474 16.88555335 16.26431542 14.4375 21.0625 C7.23790651 26.7852538 -0.01336228 26.93179423 -9 26 C-13.32796113 24.78030186 -16.06656657 23.0792824 -19 19.6875 C-20.24613351 16.33851618 -20.20846145 13.54384464 -20 10 C-15.45194365 9.82164485 -12.1205746 10.00214565 -8 12 C-8 13.65 -8 15.3 -8 17 C-4.04 17 -0.08 17 4 17 C3.67 14.36 3.34 11.72 3 9 C2.01 8.67 1.02 8.34 0 8 C-1.125 2.25 -1.125 2.25 0 0 Z " fill="#70410F" transform="translate(199,332)"/>
<path d="M0 0 C0.556875 0.391875 1.11375 0.78375 1.6875 1.1875 C1.6875 2.1775 1.6875 3.1675 1.6875 4.1875 C3.6675 4.8475 5.6475 5.5075 7.6875 6.1875 C7.19636719 6.99445313 6.70523437 7.80140625 6.19921875 8.6328125 C4.34046083 13.00353526 4.34545667 16.3865735 4.5 21.0625 C4.51353516 21.84625 4.52707031 22.63 4.54101562 23.4375 C4.57608211 25.35446782 4.62987928 27.27107751 4.6875 29.1875 C4.0275 29.1875 3.3675 29.1875 2.6875 29.1875 C3.3475 30.5075 4.0075 31.8275 4.6875 33.1875 C4.0275 34.1775 3.3675 35.1675 2.6875 36.1875 C-0.4375 36.375 -0.4375 36.375 -3.3125 36.1875 C-3.3125 35.5275 -3.3125 34.8675 -3.3125 34.1875 C-5.2925 34.6825 -5.2925 34.6825 -7.3125 35.1875 C-7.54036458 33.13671875 -7.76822917 31.0859375 -7.99609375 29.03515625 C-8.13136614 27.17609771 -8.13136614 27.17609771 -9.3125 26.1875 C-9.85545092 20.39181457 -9.25877147 14.51373295 -8.625 8.75 C-8.49738281 7.57566406 -8.36976563 6.40132813 -8.23828125 5.19140625 C-7.3125 2.1875 -7.3125 2.1875 -4.875 0.2265625 C-2.3125 -0.8125 -2.3125 -0.8125 0 0 Z " fill="#72410B" transform="translate(274.3125,307.8125)"/>
<path d="M0 0 C3.27066566 -0.08706892 6.54103365 -0.14041241 9.8125 -0.1875 C10.74126953 -0.21263672 11.67003906 -0.23777344 12.62695312 -0.26367188 C13.9659668 -0.27817383 13.9659668 -0.27817383 15.33203125 -0.29296875 C16.56530151 -0.31653442 16.56530151 -0.31653442 17.82348633 -0.34057617 C20.52414686 0.08201737 21.36619148 0.84592309 23 3 C23.6875 5.6875 23.6875 5.6875 24 8 C24.33 8 24.66 8 25 8 C25 12.62 25 17.24 25 22 C21.94080612 23.01973129 19.87581975 23.11533602 16.67578125 23.09765625 C15.64775391 23.09443359 14.61972656 23.09121094 13.56054688 23.08789062 C12.48869141 23.07951172 11.41683594 23.07113281 10.3125 23.0625 C9.22904297 23.05798828 8.14558594 23.05347656 7.02929688 23.04882812 C4.35280915 23.03703743 1.67643223 23.02058063 -1 23 C-0.34 22.67 0.32 22.34 1 22 C1 20.68 1 19.36 1 18 C5.32448133 17.26167392 9.65535464 16.60825035 14 16 C13.67 12.7 13.34 9.4 13 6 C12.67 6.66 12.34 7.32 12 8 C9.36 7.67 6.72 7.34 4 7 C3.67 7.66 3.34 8.32 3 9 C2.34 9 1.68 9 1 9 C1.20625 8.2575 1.4125 7.515 1.625 6.75 C2.05154009 3.62203932 1.49700675 2.67404259 0 0 Z " fill="#703E06" transform="translate(232,315)"/>
<path d="M0 0 C1.62490954 -0.02698189 3.24994633 -0.04638757 4.875 -0.0625 C5.77992187 -0.07410156 6.68484375 -0.08570313 7.6171875 -0.09765625 C10 0 10 0 12 1 C12.33 11.56 12.66 22.12 13 33 C18.57836298 33.31622777 18.57836298 33.31622777 22 32 C22.33 22.76 22.66 13.52 23 4 C23.33 4 23.66 4 24 4 C23.98952637 4.95366455 23.97905273 5.9073291 23.96826172 6.88989258 C23.93205499 10.42891688 23.90909716 13.9679248 23.89013672 17.50708008 C23.88008065 19.03868361 23.866434 20.57026795 23.84912109 22.10180664 C23.82485502 24.30359636 23.81351312 26.50513219 23.8046875 28.70703125 C23.79436493 29.39150833 23.78404236 30.07598541 23.77340698 30.78120422 C23.77254618 34.43061661 23.91432334 35.87148502 26 39 C26 40.32 26 41.64 26 43 C29.3 43 32.6 43 36 43 C36 39.37 36 35.74 36 32 C36.33 32 36.66 32 37 32 C37.02686553 33.97909398 37.04633375 35.95828971 37.0625 37.9375 C37.07410156 39.03964844 37.08570313 40.14179688 37.09765625 41.27734375 C37 44 37 44 36 45 C34.14712498 45.07226502 32.29166122 45.0838122 30.4375 45.0625 C29.42558594 45.05347656 28.41367188 45.04445313 27.37109375 45.03515625 C26.19740234 45.01775391 26.19740234 45.01775391 25 45 C24.34 43.35 23.68 41.7 23 40 C22.67 40.66 22.34 41.32 22 42 C20.02 41.34 18.04 40.68 16 40 C16 39.01 16 38.02 16 37 C14.68 36.67 13.36 36.34 12 36 C11.04622816 31.99679847 10.8842384 28.27788253 10.90234375 24.16796875 C10.90556641 22.87568359 10.90878906 21.58339844 10.91210938 20.25195312 C10.92046335 18.89713474 10.92892828 17.54231703 10.9375 16.1875 C10.94252 14.81315265 10.94708203 13.43880355 10.95117188 12.06445312 C10.96294332 8.70959076 10.97938717 5.35481779 11 2 C7.37 2 3.74 2 0 2 C0 13.88 0 25.76 0 38 C-2.01979268 33.96041463 -2.25637277 32.31990493 -2.265625 27.94921875 C-2.26820312 26.77552734 -2.27078125 25.60183594 -2.2734375 24.39257812 C-2.26570313 23.16990234 -2.25796875 21.94722656 -2.25 20.6875 C-2.25773437 19.47642578 -2.26546875 18.26535156 -2.2734375 17.01757812 C-2.26021198 10.97682294 -2.11645898 5.68588384 0 0 Z " fill="#917C5F" transform="translate(114,313)"/>
<path d="M0 0 C0.33 0.99 0.66 1.98 1 3 C1.9075 2.95875 2.815 2.9175 3.75 2.875 C6.90068238 2.99618009 8.45403741 3.2083967 11 5 C11.33 5.99 11.66 6.98 12 8 C11.525625 8.61875 11.05125 9.2375 10.5625 9.875 C8.6671046 12.45273775 8.73956012 13.87472142 9 17 C2.25 16.125 2.25 16.125 0 15 C0.04125 16.051875 0.0825 17.10375 0.125 18.1875 C0.1374205 25.11814123 -0.80716504 32.42149513 -3 39 C-2.5359375 39.86625 -2.5359375 39.86625 -2.0625 40.75 C-0.56400245 43.92328894 -0.74366496 46.53947694 -1 50 C-1.66 50.66 -2.32 51.32 -3 52 C-3 49.03 -3 46.06 -3 43 C-3.66 43 -4.32 43 -5 43 C-5 40.03 -5 37.06 -5 34 C-4.34 34 -3.68 34 -3 34 C-3.09539062 33.45214844 -3.19078125 32.90429688 -3.2890625 32.33984375 C-4.4145551 24.29126294 -3.28526643 16.96652743 -2 9 C-2.66 9 -3.32 9 -4 9 C-4 7.68 -4 6.36 -4 5 C-2.68 4.67 -1.36 4.34 0 4 C0 2.68 0 1.36 0 0 Z " fill="#6F3B03" transform="translate(278,178)"/>
<path d="M0 0 C4.29 0 8.58 0 13 0 C12.03225806 8.38709677 12.03225806 8.38709677 10 11 C5.28493603 13.24526856 1.10467806 13.17602338 -4 13 C-4 13.66 -4 14.32 -4 15 C-5.65 15 -7.3 15 -9 15 C-9.33 14.01 -9.66 13.02 -10 12 C-9.34 12 -8.68 12 -8 12 C-7.896875 11.401875 -7.79375 10.80375 -7.6875 10.1875 C-6.52088648 6.47554789 -4.17880582 5.11920388 -1 3 C-0.67 2.01 -0.34 1.02 0 0 Z " fill="#6D3D04" transform="translate(420,342)"/>
<path d="M0 0 C0.66 0 1.32 0 2 0 C2 0.99 2 1.98 2 3 C1.34 3 0.68 3 0 3 C0 4.32 0 5.64 0 7 C-0.99 7 -1.98 7 -3 7 C-3.33 8.65 -3.66 10.3 -4 12 C-9.36095333 13.12862175 -14.55306686 13.09688221 -20 13 C-21.4606285 10.35261084 -22 9.10551666 -22 6 C-20.89591797 5.83564453 -20.89591797 5.83564453 -19.76953125 5.66796875 C-14.46427918 4.80595289 -10.55526182 3.94752235 -6 1 C-3.25 0.875 -3.25 0.875 -1 1 C-0.67 0.67 -0.34 0.34 0 0 Z " fill="#713C03" transform="translate(255,344)"/>
<path d="M0 0 C3.79692749 3.79692749 3.12810005 8.90059776 3.1328125 14.015625 C3.13376923 14.67205994 3.13472595 15.32849487 3.13571167 16.00482178 C3.1363888 17.38309831 3.13456723 18.76137812 3.13037109 20.13964844 C3.12498159 22.25723313 3.13034936 24.37460904 3.13671875 26.4921875 C3.13605856 27.8333338 3.13477862 29.17447998 3.1328125 30.515625 C3.13168457 31.73540039 3.13055664 32.95517578 3.12939453 34.21191406 C3 37 3 37 2 38 C-0.01964199 38.07244053 -2.04167124 38.08377188 -4.0625 38.0625 C-5.16722656 38.05347656 -6.27195312 38.04445313 -7.41015625 38.03515625 C-8.26480469 38.02355469 -9.11945313 38.01195312 -10 38 C-10.66 36.68 -11.32 35.36 -12 34 C-12.61875 34.66 -13.2375 35.32 -13.875 36 C-18.23413237 38.78984472 -21.94786424 38.72055051 -27 38 C-30.125 36.5 -30.125 36.5 -32 35 C-28.89252306 33.44626153 -26.25773473 34.41471372 -22.875 34.9375 C-21.59367187 35.13214844 -20.31234375 35.32679688 -18.9921875 35.52734375 C-17.51105469 35.76130859 -17.51105469 35.76130859 -16 36 C-16 35.34 -16 34.68 -16 34 C-15.34 34 -14.68 34 -14 34 C-14 32.68 -14 31.36 -14 30 C-16.31 29.67 -18.62 29.34 -21 29 C-20.67 28.34 -20.34 27.68 -20 27 C-18.576875 27.061875 -18.576875 27.061875 -17.125 27.125 C-13.89755144 27.34973818 -13.89755144 27.34973818 -12 25 C-11.59952556 22.67724823 -11.2602896 20.34260643 -11 18 C-10.67 18 -10.34 18 -10 18 C-9.86741573 25.95505618 -9.86741573 25.95505618 -11 30 C-10.67 30.33 -10.34 30.66 -10 31 C-10 32.65 -10 34.3 -10 36 C-6.37 36 -2.74 36 1 36 C0.67 24.12 0.34 12.24 0 0 Z " fill="#806D57" transform="translate(352,320)"/>
<path d="M0 0 C0.66 0.66 1.32 1.32 2 2 C0.35 2.33 -1.3 2.66 -3 3 C-3 4.65 -3 6.3 -3 8 C-3.66 8 -4.32 8 -5 8 C-5 8.99 -5 9.98 -5 11 C-5.66 11 -6.32 11 -7 11 C-7 12.32 -7 13.64 -7 15 C-10.3 15 -13.6 15 -17 15 C-17 12.36 -17 9.72 -17 7 C-16.030625 6.566875 -15.06125 6.13375 -14.0625 5.6875 C-10.72268235 4.2985139 -10.72268235 4.2985139 -10 1 C-6.77496674 -0.31390244 -3.43692859 -0.22414752 0 0 Z " fill="#703C04" transform="translate(335,315)"/>
<path d="M0 0 C1.65 0.33 3.3 0.66 5 1 C5 1.66 5 2.32 5 3 C5.763125 2.979375 6.52625 2.95875 7.3125 2.9375 C10 3 10 3 13 4 C13.44117322 8.49996683 13.52867608 10.34611117 10.625 13.9375 C8 16 8 16 6 16 C6 16.66 6 17.32 6 18 C3.69 18.33 1.38 18.66 -1 19 C-1.33 18.34 -1.66 17.68 -2 17 C-0.02 17 1.96 17 4 17 C3.67 14.36 3.34 11.72 3 9 C2.01 8.67 1.02 8.34 0 8 C-1.125 2.25 -1.125 2.25 0 0 Z " fill="#703C03" transform="translate(199,332)"/>
<path d="M0 0 C1.2065625 0.0309375 1.2065625 0.0309375 2.4375 0.0625 C2.60765625 0.67996094 2.7778125 1.29742187 2.953125 1.93359375 C4.65935424 7.8963204 6.77331117 13.46364631 9.4375 19.0625 C10.0975 18.7325 10.7575 18.4025 11.4375 18.0625 C11.4375 21.0325 11.4375 24.0025 11.4375 27.0625 C10.7775 27.0625 10.1175 27.0625 9.4375 27.0625 C9.1075 24.7525 8.7775 22.4425 8.4375 20.0625 C7.4475 20.3925 6.4575 20.7225 5.4375 21.0625 C5.1075 20.0725 4.7775 19.0825 4.4375 18.0625 C3.7775 17.4025 3.1175 16.7425 2.4375 16.0625 C2.7675 15.0725 3.0975 14.0825 3.4375 13.0625 C3.04817144 10.91994207 3.04817144 10.91994207 2.4375 9.0625 C1.4475 9.5575 1.4475 9.5575 0.4375 10.0625 C0.7675 8.0825 1.0975 6.1025 1.4375 4.0625 C0.7775 4.0625 0.1175 4.0625 -0.5625 4.0625 C-0.5625 5.7125 -0.5625 7.3625 -0.5625 9.0625 C-2.5425 10.0525 -2.5425 10.0525 -4.5625 11.0625 C-4.5625 10.4025 -4.5625 9.7425 -4.5625 9.0625 C-7.8625 8.7325 -11.1625 8.4025 -14.5625 8.0625 C-14.5625 9.3825 -14.5625 10.7025 -14.5625 12.0625 C-12.2525 12.0625 -9.9425 12.0625 -7.5625 12.0625 C-7.5625 12.3925 -7.5625 12.7225 -7.5625 13.0625 C-10.5325 13.0625 -13.5025 13.0625 -16.5625 13.0625 C-16.5625 11.4125 -16.5625 9.7625 -16.5625 8.0625 C-13.74294739 6.14520423 -12.48630446 6.06918382 -9 6.375 C-5.5625 7.0625 -5.5625 7.0625 -2.5625 8.0625 C-2.8409375 6.3609375 -2.8409375 6.3609375 -3.125 4.625 C-3.269375 3.449375 -3.41375 2.27375 -3.5625 1.0625 C-2.5625 0.0625 -2.5625 0.0625 0 0 Z " fill="#796145" transform="translate(229.5625,140.9375)"/>
<path d="M0 0 C0.99 0.66 1.98 1.32 3 2 C3.84972616 7.18256404 3.8036259 12.28792742 1.5625 17.0625 C-1.99320823 19.75096232 -5.7220116 20.87565689 -10 22 C-10.1875 19.125 -10.1875 19.125 -10 16 C-9.01 15.34 -8.02 14.68 -7 14 C-7 13.34 -7 12.68 -7 12 C-6.34 12 -5.68 12 -5 12 C-4.34 10.35 -3.68 8.7 -3 7 C-2.01 7 -1.02 7 0 7 C0 4.69 0 2.38 0 0 Z " fill="#724A1B" transform="translate(212,336)"/>
<path d="M0 0 C1.125 1.75 1.125 1.75 2 4 C1.24009189 7.47386564 -0.31543654 8.20830715 -3.3125 10.1875 C-9.42847683 13.38334855 -15.23009977 13.11830894 -22 13 C-22.06058594 14.28777344 -22.12117188 15.57554687 -22.18359375 16.90234375 C-22.26798247 18.58074159 -22.3526313 20.25912636 -22.4375 21.9375 C-22.47681641 22.78763672 -22.51613281 23.63777344 -22.55664062 24.51367188 C-22.59853516 25.32255859 -22.64042969 26.13144531 -22.68359375 26.96484375 C-22.73858032 28.08814087 -22.73858032 28.08814087 -22.79467773 29.23413086 C-23 31 -23 31 -24 32 C-26.18639453 32.07258946 -28.37500389 32.08373783 -30.5625 32.0625 C-32.35880859 32.04896484 -32.35880859 32.04896484 -34.19140625 32.03515625 C-35.11824219 32.02355469 -36.04507813 32.01195312 -37 32 C-37 31.01 -37 30.02 -37 29 C-36.34 29.33 -35.68 29.66 -35 30 C-33.29636178 30.22622081 -31.58671299 30.40888473 -29.875 30.5625 C-28.96492188 30.64628906 -28.05484375 30.73007812 -27.1171875 30.81640625 C-26.41851562 30.87699219 -25.71984375 30.93757813 -25 31 C-25.00523682 30.42967041 -25.01047363 29.85934082 -25.01586914 29.27172852 C-25.03658221 26.70199677 -25.0496419 24.13228253 -25.0625 21.5625 C-25.07087891 20.66466797 -25.07925781 19.76683594 -25.08789062 18.84179688 C-25.09111328 17.98779297 -25.09433594 17.13378906 -25.09765625 16.25390625 C-25.10289307 15.46314697 -25.10812988 14.6723877 -25.11352539 13.85766602 C-25 12 -25 12 -24 11 C-20.17778522 10.58576983 -16.35801147 10.22672607 -12.52539062 9.92578125 C-11.72423828 9.84972656 -10.92308594 9.77367187 -10.09765625 9.6953125 C-9.36039307 9.63359863 -8.62312988 9.57188477 -7.86352539 9.50830078 C-5.59883127 9.10973221 -5.59883127 9.10973221 -4 6 C-3.01 6 -2.02 6 -1 6 C-1.20625 5.38125 -1.4125 4.7625 -1.625 4.125 C-1.74875 3.42375 -1.8725 2.7225 -2 2 C-1.34 1.34 -0.68 0.68 0 0 Z " fill="#86703F" transform="translate(103,326)"/>
<path d="M0 0 C1.14982602 4.09003859 1.11094256 8.03177051 1.0625 12.25 C1.05798828 12.99507812 1.05347656 13.74015625 1.04882812 14.5078125 C1.03709246 16.3385764 1.0191585 18.16929873 1 20 C2.32 20.66 3.64 21.32 5 22 C5.33 21.01 5.66 20.02 6 19 C7 21 7 21 7 24 C6.67257813 24.75667969 6.34515625 25.51335937 6.0078125 26.29296875 C4.82565169 29.46830768 4.80079624 31.9362287 4.875 35.3125 C4.89304688 36.38113281 4.91109375 37.44976562 4.9296875 38.55078125 C4.95289063 39.35902344 4.97609375 40.16726562 5 41 C2.52583979 38.10358312 1.6366234 36.23369122 1.4375 32.4375 C1.24365667 28.95419416 1.03873166 28.05809749 -1 25 C-2.73893619 16.65310629 -2.86973289 8.07112375 0 0 Z " fill="#775433" transform="translate(207,189)"/>
<path d="M0 0 C1.65322266 0.01740234 1.65322266 0.01740234 3.33984375 0.03515625 C4.99693359 0.04869141 4.99693359 0.04869141 6.6875 0.0625 C7.54214844 0.07410156 8.39679688 0.08570313 9.27734375 0.09765625 C9.27734375 3.06765625 9.27734375 6.03765625 9.27734375 9.09765625 C8.94734375 9.09765625 8.61734375 9.09765625 8.27734375 9.09765625 C8.27734375 6.78765625 8.27734375 4.47765625 8.27734375 2.09765625 C4.97734375 2.42765625 1.67734375 2.75765625 -1.72265625 3.09765625 C-2.05265625 22.56765625 -2.38265625 42.03765625 -2.72265625 62.09765625 C-3.05265625 62.09765625 -3.38265625 62.09765625 -3.72265625 62.09765625 C-3.74578389 54.16151838 -3.76357348 46.22539449 -3.77446842 38.2892313 C-3.77969633 34.60451127 -3.7867923 30.91981422 -3.7980957 27.23510742 C-3.80892787 23.68194794 -3.81493378 20.12881062 -3.81753349 16.57563591 C-3.81938715 15.21719959 -3.82300663 13.85876454 -3.82838631 12.5003376 C-3.835601 10.60383402 -3.83606434 8.70730832 -3.83618164 6.81079102 C-3.83840225 5.72935318 -3.84062286 4.64791534 -3.84291077 3.53370667 C-3.67233783 0.07833322 -3.48444946 0.12498025 0 0 Z " fill="#84786B" transform="translate(162.72265625,294.90234375)"/>
<path d="M0 0 C0.99 0.33 1.98 0.66 3 1 C3.31491734 9.03039221 2.55011405 17.34965786 0 25 C0.4640625 25.86625 0.4640625 25.86625 0.9375 26.75 C2.43599755 29.92328894 2.25633504 32.53947694 2 36 C1.34 36.66 0.68 37.32 0 38 C0 35.03 0 32.06 0 29 C-0.66 29 -1.32 29 -2 29 C-2 26.03 -2 23.06 -2 20 C-1.34 20 -0.68 20 0 20 C-0.12568359 19.09121094 -0.12568359 19.09121094 -0.25390625 18.1640625 C-1.01157955 11.93004164 -0.85947067 6.21463404 0 0 Z " fill="#8A7054" transform="translate(275,192)"/>
<path d="M0 0 C4.29 0 8.58 0 13 0 C11.64615385 8.36923077 11.64615385 8.36923077 8.375 11.5625 C7.59125 12.036875 6.8075 12.51125 6 13 C6 11.68 6 10.36 6 9 C6.99 9 7.98 9 9 9 C9 7.68 9 6.36 9 5 C9.66 5 10.32 5 11 5 C11 4.01 11 3.02 11 2 C10.2575 2.309375 9.515 2.61875 8.75 2.9375 C6 4 6 4 3.9375 4.5 C1.94865325 4.91884212 1.94865325 4.91884212 0.1875 6.0625 C-2.89828337 7.38497859 -5.68477932 7.12750849 -9 7 C-9 6.67 -9 6.34 -9 6 C-5.535 5.505 -5.535 5.505 -2 5 C-1.34 3.35 -0.68 1.7 0 0 Z " fill="#70502D" transform="translate(246,342)"/>
<path d="M0 0 C3.1875 2.1875 3.1875 2.1875 4.1875 5.1875 C-1.46217811 4.55975799 -1.46217811 4.55975799 -3.24731445 2.6628418 C-5.27420435 0.7522981 -6.29807918 0.83612934 -9.04296875 0.89453125 C-10.24663086 0.9090332 -10.24663086 0.9090332 -11.47460938 0.92382812 C-12.30798828 0.94896484 -13.14136719 0.97410156 -14 1 C-15.2674707 1.02030273 -15.2674707 1.02030273 -16.56054688 1.04101562 C-18.64480384 1.07634201 -20.72873277 1.13014861 -22.8125 1.1875 C-23.1425 2.5075 -23.4725 3.8275 -23.8125 5.1875 C-25.4625 5.5175 -27.1125 5.8475 -28.8125 6.1875 C-27.17178557 2.35916632 -25.2663303 0.7210132 -21.421875 -1.046875 C-14.53455916 -3.0677042 -6.55868979 -3.0607219 0 0 Z " fill="#695233" transform="translate(347.8125,314.8125)"/>
<path d="M0 0 C1.67542976 0.28604898 3.34385343 0.61781233 5 1 C5 1.66 5 2.32 5 3 C5.66 3 6.32 3 7 3 C6.67 4.98 6.34 6.96 6 9 C3.24921116 9.91692961 1.64051087 10.10886083 -1.1875 10.0625 C-3.0746875 10.0315625 -3.0746875 10.0315625 -5 10 C-4.34 9.01 -3.68 8.02 -3 7 C-2.32136945 5.0040278 -1.65358081 3.00431449 -1 1 C-0.67 0.67 -0.34 0.34 0 0 Z " fill="#713D03" transform="translate(421,345)"/>
<path d="M0 0 C4.86896303 0.59619955 9.32790951 1.56976822 14 3 C14 5.64 14 8.28 14 11 C10.04 11 6.08 11 2 11 C1.67 9.35 1.34 7.7 1 6 C-2.3 5.34 -5.6 4.68 -9 4 C-9 3.67 -9 3.34 -9 3 C-7.3973218 2.89175157 -5.79254252 2.81429355 -4.1875 2.75 C-3.29417969 2.70359375 -2.40085938 2.6571875 -1.48046875 2.609375 C1 3 1 3 2.82421875 4.890625 C4 7 4 7 4 9 C6.31 9 8.62 9 11 9 C11 7.68 11 6.36 11 5 C10.28972656 4.80664062 9.57945312 4.61328125 8.84765625 4.4140625 C7.46900391 4.02347656 7.46900391 4.02347656 6.0625 3.625 C5.14597656 3.36976563 4.22945312 3.11453125 3.28515625 2.8515625 C1 2 1 2 0 0 Z " fill="#937B65" transform="translate(189,338)"/>
<path d="M0 0 C1.23105469 -0.00515625 2.46210938 -0.0103125 3.73046875 -0.015625 C6.8125 0.25 6.8125 0.25 8.8125 2.25 C7.64332031 2.26417969 6.47414062 2.27835937 5.26953125 2.29296875 C3.72131543 2.33988438 2.17313956 2.38813169 0.625 2.4375 C-0.14392578 2.44330078 -0.91285156 2.44910156 -1.70507812 2.45507812 C-6.07420627 2.62384273 -7.69093682 2.81708176 -11.11328125 5.80078125 C-11.79777344 6.60902344 -12.48226562 7.41726563 -13.1875 8.25 C-13.8475 8.25 -14.5075 8.25 -15.1875 8.25 C-15.5175 11.88 -15.8475 15.51 -16.1875 19.25 C-18.1875 16.25 -18.1875 16.25 -18.0859375 13.91015625 C-16.30535234 5.07367017 -16.30535234 5.07367017 -12.1875 2.25 C-8.05024537 0.21092451 -4.58736842 -0.01933559 0 0 Z " fill="#705538" transform="translate(197.1875,312.75)"/>
<path d="M0 0 C2.64 0 5.28 0 8 0 C8 3.3 8 6.6 8 10 C6.68 10 5.36 10 4 10 C4 10.99 4 11.98 4 13 C4.66 13.33 5.32 13.66 6 14 C3.64561267 15.42944945 2.51967567 16.08661261 -0.25 15.625 C-0.8275 15.41875 -1.405 15.2125 -2 15 C-1.01 13.68 -0.02 12.36 1 11 C-1.64 10.67 -4.28 10.34 -7 10 C-7 9.67 -7 9.34 -7 9 C-2.23692563 8.04738513 2.1666528 7.91666643 7 8 C6.67 6.35 6.34 4.7 6 3 C4.02 2.34 2.04 1.68 0 1 C0 0.67 0 0.34 0 0 Z " fill="#71522E" transform="translate(334,323)"/>
<path d="M0 0 C3.63 0 7.26 0 11 0 C10.67 1.65 10.34 3.3 10 5 C9.34 5 8.68 5 8 5 C8 5.66 8 6.32 8 7 C5.03 7 2.06 7 -1 7 C-0.67 6.01 -0.34 5.02 0 4 C0.66 4 1.32 4 2 4 C2 3.34 2 2.68 2 2 C1.34 2 0.68 2 0 2 C0 1.34 0 0.68 0 0 Z " fill="#703C04" transform="translate(328,349)"/>
<path d="M0 0 C0.99 0 1.98 0 3 0 C2.79375 0.78375 2.5875 1.5675 2.375 2.375 C2.25125 3.24125 2.1275 4.1075 2 5 C2.66 5.66 3.32 6.32 4 7 C3.67 7.66 3.34 8.32 3 9 C-0.3 9 -3.6 9 -7 9 C-7 7.02 -7 5.04 -7 3 C-5.02 3.99 -5.02 3.99 -3 5 C-2.690625 4.360625 -2.38125 3.72125 -2.0625 3.0625 C-1 1 -1 1 0 0 Z " fill="#703C02" transform="translate(306,310)"/>
<path d="M0 0 C3.3946611 2.62782306 3.69809432 5.30550453 4.3125 9.4375 C4.49425781 10.57058594 4.67601562 11.70367187 4.86328125 12.87109375 C5 16 5 16 3 20 C-4.26 20 -11.52 20 -19 20 C-19 19.67 -19 19.34 -19 19 C-8.605 18.505 -8.605 18.505 2 18 C1.505 11.565 1.505 11.565 1 5 C0.67 5 0.34 5 0 5 C0 3.35 0 1.7 0 0 Z " fill="#73614E" transform="translate(255,319)"/>
<path d="M0 0 C-0.875 4.875 -0.875 4.875 -2 6 C-4.01964199 6.07244053 -6.04167124 6.08377188 -8.0625 6.0625 C-9.16722656 6.05347656 -10.27195312 6.04445313 -11.41015625 6.03515625 C-12.69212891 6.01775391 -12.69212891 6.01775391 -14 6 C-13.67 4.68 -13.34 3.36 -13 2 C-11.35 2 -9.7 2 -8 2 C-7.67 1.34 -7.34 0.68 -7 0 C-4.0262656 -1.09036928 -3.11592499 -1.03864166 0 0 Z " fill="#703C03" transform="translate(423,331)"/>
<path d="M0 0 C0 0.99 0 1.98 0 3 C-1.32 3 -2.64 3 -4 3 C-4.33 3.99 -4.66 4.98 -5 6 C-7.06640625 6.73046875 -7.06640625 6.73046875 -9.5625 7.1875 C-10.38878906 7.34605469 -11.21507812 7.50460937 -12.06640625 7.66796875 C-13.02353516 7.83232422 -13.02353516 7.83232422 -14 8 C-13.41385929 5.06312654 -13.03928669 4.04285821 -10.9375 1.75 C-6.97597894 -0.6100551 -4.55355001 -0.30871526 0 0 Z " fill="#704317" transform="translate(390,313)"/>
<path d="M0 0 C4.29 0 8.58 0 13 0 C12.07692308 8 12.07692308 8 10 11 C9.01 11.33 8.02 11.66 7 12 C7.33 10.02 7.66 8.04 8 6 C7.34 6 6.68 6 6 6 C6 5.34 6 4.68 6 4 C6.66 4 7.32 4 8 4 C8 3.34 8 2.68 8 2 C5.36 2 2.72 2 0 2 C0 1.34 0 0.68 0 0 Z " fill="#745533" transform="translate(420,342)"/>
<path d="M0 0 C3.51532618 2.22637325 4.92448909 3.96683409 6 8 C6.15010806 10.69193789 6.09154624 13.29938583 6 16 C1.38 16 -3.24 16 -8 16 C-8 14.68 -8 13.36 -8 12 C-7.01 12.495 -7.01 12.495 -6 13 C-6.33 13.66 -6.66 14.32 -7 15 C-3.7 15 -0.4 15 3 15 C2.34 13.35 1.68 11.7 1 10 C1.66 10 2.32 10 3 10 C2.67 8.02 2.34 6.04 2 4 C1.34 4 0.68 4 0 4 C0 2.68 0 1.36 0 0 Z " fill="#7C5E42" transform="translate(306,304)"/>
<path d="M0 0 C1.94202011 0.97618418 3.83222572 1.99321758 5.69921875 3.10546875 C5.03921875 3.76546875 4.37921875 4.42546875 3.69921875 5.10546875 C1.71921875 4.44546875 -0.26078125 3.78546875 -2.30078125 3.10546875 C-2.30078125 2.44546875 -2.30078125 1.78546875 -2.30078125 1.10546875 C-3.95078125 1.43546875 -5.60078125 1.76546875 -7.30078125 2.10546875 C-6.99140625 3.03359375 -6.99140625 3.03359375 -6.67578125 3.98046875 C-6.55203125 4.68171875 -6.42828125 5.38296875 -6.30078125 6.10546875 C-6.96078125 6.76546875 -7.62078125 7.42546875 -8.30078125 8.10546875 C-8.73390625 7.30109375 -9.16703125 6.49671875 -9.61328125 5.66796875 C-11.10552127 2.82700521 -11.10552127 2.82700521 -14.30078125 2.10546875 C-11.90557729 -2.68493918 -4.33766124 -1.68645912 0 0 Z " fill="#713D0A" transform="translate(206.30078125,331.89453125)"/>
<path d="M0 0 C0 3 0 3 -1.4375 5.3125 C-3.15321951 8.26353756 -3.6087048 10.63486125 -4 14 C-4.66 14 -5.32 14 -6 14 C-6 14.66 -6 15.32 -6 16 C-6.804375 16.2475 -7.60875 16.495 -8.4375 16.75 C-9.283125 17.1625 -10.12875 17.575 -11 18 C-11.65213292 20.02463255 -11.65213292 20.02463255 -12 22 C-12.99 22.33 -13.98 22.66 -15 23 C-14.00842297 19.75483881 -13.36514842 18.26215784 -10.5625 16.25 C-7.37116807 13.44785489 -6.96062158 11.1760068 -5.82421875 7.1953125 C-4.58011481 3.88163282 -2.68380381 2.24859238 0 0 Z " fill="#796149" transform="translate(223,166)"/>
<path d="M0 0 C0.99 0 1.98 0 3 0 C2.67 1.65 2.34 3.3 2 5 C5.96 5 9.92 5 14 5 C12.68 5.33 11.36 5.66 10 6 C9.67 6.99 9.34 7.98 9 9 C5.7 8.67 2.4 8.34 -1 8 C-1.04241723 5.66705225 -1.04092937 3.33297433 -1 1 C-0.67 0.67 -0.34 0.34 0 0 Z " fill="#764C2A" transform="translate(406,325)"/>
<path d="M0 0 C3.36591427 2.72478774 4.44226276 6.06856792 6 10 C6.66 9.67 7.32 9.34 8 9 C8 11.97 8 14.94 8 18 C7.34 18 6.68 18 6 18 C5.67 15.69 5.34 13.38 5 11 C4.01 11.33 3.02 11.66 2 12 C1.67 11.01 1.34 10.02 1 9 C0.34 8.34 -0.32 7.68 -1 7 C-0.67 6.01 -0.34 5.02 0 4 C0 2.68 0 1.36 0 0 Z " fill="#7B5839" transform="translate(233,150)"/>
<path d="M0 0 C0.99 0.33 1.98 0.66 3 1 C3.309375 1.639375 3.61875 2.27875 3.9375 2.9375 C4.84998712 5.0679917 4.84998712 5.0679917 6.625 6.25 C10.15259085 7.36397606 13.29997407 7.11746114 17 7 C17.99 7 18.98 7 20 7 C19.01 8.485 19.01 8.485 18 10 C16.10353002 9.88506243 14.20781668 9.75760358 12.3125 9.625 C11.25675781 9.55539062 10.20101563 9.48578125 9.11328125 9.4140625 C6.09322731 9.01239911 3.75921946 8.25930981 1 7 C0.67 4.69 0.34 2.38 0 0 Z " fill="#705133" transform="translate(277,337)"/>
<path d="M0 0 C0.66 0 1.32 0 2 0 C2.33 0.99 2.66 1.98 3 3 C2.2884375 3.928125 2.2884375 3.928125 1.5625 4.875 C-0.3328954 7.45273775 -0.26043988 8.87472142 0 12 C-3.375 11.6875 -3.375 11.6875 -7 11 C-7.66 10.01 -8.32 9.02 -9 8 C-7.02 8 -5.04 8 -3 8 C-2.67 6.68 -2.34 5.36 -2 4 C-1.34 4 -0.68 4 0 4 C0 2.68 0 1.36 0 0 Z " fill="#72593B" transform="translate(287,183)"/>
<path d="M0 0 C0.99 0 1.98 0 3 0 C3 1.98 3 3.96 3 6 C3.99 6.33 4.98 6.66 6 7 C5.67 8.32 5.34 9.64 5 11 C2.69 10.34 0.38 9.68 -2 9 C-1.34 6.03 -0.68 3.06 0 0 Z " fill="#775A40" transform="translate(281,172)"/>
<path d="M0 0 C0.66 0.99 1.32 1.98 2 3 C1.3125 4.9375 1.3125 4.9375 0 7 C-2.3125 8.0625 -2.3125 8.0625 -5 8 C-7.8125 5.5625 -7.8125 5.5625 -10 3 C-3.25 0.875 -3.25 0.875 -1 2 C-0.67 1.34 -0.34 0.68 0 0 Z " fill="#764818" transform="translate(232,151)"/>
<path d="M0 0 C0.33 0 0.66 0 1 0 C1 3.63 1 7.26 1 11 C-2.96 10.67 -6.92 10.34 -11 10 C-11.33 9.01 -11.66 8.02 -12 7 C-10.35 6.67 -8.7 6.34 -7 6 C-7 6.33 -7 6.66 -7 7 C-4.69 7.33 -2.38 7.66 0 8 C0 5.36 0 2.72 0 0 Z " fill="#6B4216" transform="translate(389,316)"/>
<path d="M0 0 C2.475 0.495 2.475 0.495 5 1 C6.09267403 4.32419143 5.88036715 6.60602158 5.125 10 C4.94195312 10.845625 4.75890625 11.69125 4.5703125 12.5625 C4.0669283 14.71395026 3.54521161 16.8588053 3 19 C2.67 19 2.34 19 2 19 C2 14.71 2 10.42 2 6 C2.66 6 3.32 6 4 6 C4 5.01 4 4.02 4 3 C2.68 2.34 1.36 1.68 0 1 C0 0.67 0 0.34 0 0 Z " fill="#815C32" transform="translate(245,142)"/>
<path d="M0 0 C0.99 0.33 1.98 0.66 3 1 C3.33 1.99 3.66 2.98 4 4 C4.66 4.33 5.32 4.66 6 5 C5.4375 6.9375 5.4375 6.9375 4 9 C0.375 9.75 0.375 9.75 -3 10 C-3 9.34 -3 8.68 -3 8 C-1.35 8 0.3 8 2 8 C1.67 7.34 1.34 6.68 1 6 C0.01 5.67 -0.98 5.34 -2 5 C-1.34 3.35 -0.68 1.7 0 0 Z " fill="#784F23" transform="translate(128,349)"/>
<path d="M0 0 C0 1.32 0 2.64 0 4 C-3.21451269 5.60725635 -6.43612536 5.05748185 -10 5 C-10.33 4.01 -10.66 3.02 -11 2 C-9.5422647 1.664061 -8.08378894 1.33133376 -6.625 1 C-5.40683594 0.7215625 -5.40683594 0.7215625 -4.1640625 0.4375 C-2 0 -2 0 0 0 Z " fill="#68400C" transform="translate(267,149)"/>
<path d="M0 0 C0.66 0 1.32 0 2 0 C2.33 1.32 2.66 2.64 3 4 C6.96 4 10.92 4 15 4 C10.48345784 7.38740662 10.48345784 7.38740662 6.375 7.25 C5.59898437 7.23453125 4.82296875 7.2190625 4.0234375 7.203125 C2 7 2 7 0 6 C0 4.02 0 2.04 0 0 Z " fill="#7B5E39" transform="translate(231,326)"/>
<path d="M0 0 C-0.165 0.598125 -0.33 1.19625 -0.5 1.8125 C-1.1114124 4.11344336 -1.1114124 4.11344336 -1 7 C-1.33 7.66 -1.66 8.32 -2 9 C-4.31 8.67 -6.62 8.34 -9 8 C-7.68 7.67 -6.36 7.34 -5 7 C-5 5.35 -5 3.7 -5 2 C-5.66 1.67 -6.32 1.34 -7 1 C-4.53721199 -0.231394 -2.7204945 -0.07159196 0 0 Z " fill="#6A3C08" transform="translate(422,315)"/>
<path d="M0 0 C5.28 0.66 10.56 1.32 16 2 C16 1.34 16 0.68 16 0 C16.99 0.33 17.98 0.66 19 1 C15.12199565 4.38541719 12.4060835 4.44077265 7.41796875 4.30078125 C4.35823295 3.92016791 2.3637441 2.96978675 0 1 C0 0.67 0 0.34 0 0 Z " fill="#7B6145" transform="translate(320,354)"/>
<path d="M0 0 C4.86896303 0.59619955 9.32790951 1.56976822 14 3 C14 5.31 14 7.62 14 10 C13.01 9.67 12.02 9.34 11 9 C11 7.68 11 6.36 11 5 C10.28972656 4.80664062 9.57945312 4.61328125 8.84765625 4.4140625 C7.46900391 4.02347656 7.46900391 4.02347656 6.0625 3.625 C5.14597656 3.36976563 4.22945312 3.11453125 3.28515625 2.8515625 C1 2 1 2 0 0 Z " fill="#81694E" transform="translate(189,338)"/>
<path d="M0 0 C0.66 0 1.32 0 2 0 C2.144375 1.11375 2.28875 2.2275 2.4375 3.375 C2.78372035 6.82142047 2.78372035 6.82142047 4 9 C4.1875 12.5 4.1875 12.5 4 16 C3.34 16.66 2.68 17.32 2 18 C2 15.03 2 12.06 2 9 C1.34 9 0.68 9 0 9 C0 6.03 0 3.06 0 0 Z " fill="#765636" transform="translate(273,212)"/>
<path d="M0 0 C1.65 0 3.3 0 5 0 C1.04297724 4.29619614 -1.86020672 6.86045363 -7.8125 7.125 C-8.534375 7.08375 -9.25625 7.0425 -10 7 C-10 6.34 -10 5.68 -10 5 C-6.17679443 3.57741188 -3.08718695 2.75957724 1 3 C0.67 2.01 0.34 1.02 0 0 Z " fill="#745C44" transform="translate(303,351)"/>
<path d="M0 0 C0 0.99 0 1.98 0 3 C0.66 3 1.32 3 2 3 C1.34 4.32 0.68 5.64 0 7 C-0.99 7 -1.98 7 -3 7 C-3.66 7.66 -4.32 8.32 -5 9 C-5.33 7.35 -5.66 5.7 -6 4 C-5.01 4 -4.02 4 -3 4 C-3.33 3.01 -3.66 2.02 -4 1 C-2 0 -2 0 0 0 Z " fill="#72430E" transform="translate(374,318)"/>
<path d="M0 0 C-0.33 0.66 -0.66 1.32 -1 2 C-2.32 2 -3.64 2 -5 2 C-5 4.64 -5 7.28 -5 10 C-5.66 10 -6.32 10 -7 10 C-8.60725635 6.78548731 -8.05748185 3.56387464 -8 0 C-4.71023192 -1.09658936 -3.28696233 -0.79953138 0 0 Z " fill="#6F4F2F" transform="translate(247,184)"/>
<path d="M0 0 C2.875 0.6875 2.875 0.6875 6 2 C7.375 4.625 7.375 4.625 8 7 C5.69 6.34 3.38 5.68 1 5 C0.67 3.35 0.34 1.7 0 0 Z " fill="#6E3D02" transform="translate(190,333)"/>
<path d="M0 0 C0.7734375 0.495 0.7734375 0.495 1.5625 1 C4.78026512 2.32010877 7.5570528 2.13242105 11 2 C11 2.66 11 3.32 11 4 C5.70769231 6.21538462 5.70769231 6.21538462 2.125 5.125 C1.42375 4.75375 0.7225 4.3825 0 4 C0 2.68 0 1.36 0 0 Z " fill="#715233" transform="translate(263,170)"/>
<path d="M0 0 C-5.1468192 3.16727335 -9.158256 3.35050464 -15 3 C-13.68 2.67 -12.36 2.34 -11 2 C-11 1.34 -11 0.68 -11 0 C-3.375 -1.125 -3.375 -1.125 0 0 Z " fill="#73583D" transform="translate(427,355)"/>
<path d="M0 0 C3.0390625 -0.29296875 3.0390625 -0.29296875 6.625 -0.1875 C7.81351562 -0.16042969 9.00203125 -0.13335937 10.2265625 -0.10546875 C11.14179688 -0.07066406 12.05703125 -0.03585937 13 0 C13 2.64 13 5.28 13 8 C12.67 8 12.34 8 12 8 C12 5.69 12 3.38 12 1 C10.39482903 1.08733576 8.79078338 1.19552224 7.1875 1.3125 C6.29417969 1.37050781 5.40085937 1.42851562 4.48046875 1.48828125 C1.69396 2.06313581 0.75864246 2.8206856 -1 5 C-1.33 4.34 -1.66 3.68 -2 3 C-1.34 2.01 -0.68 1.02 0 0 Z " fill="#6F5137" transform="translate(299,338)"/>
<path d="M0 0 C1.9375 0.375 1.9375 0.375 4 1 C4.33 1.66 4.66 2.32 5 3 C4.34 3 3.68 3 3 3 C3 4.32 3 5.64 3 7 C2.34 7 1.68 7 1 7 C0.67 6.34 0.34 5.68 0 5 C-0.99 4.34 -1.98 3.68 -3 3 C-2.34 3 -1.68 3 -1 3 C-0.67 2.01 -0.34 1.02 0 0 Z " fill="#6C3D03" transform="translate(91,306)"/>
<path d="M0 0 C1.32 0.66 2.64 1.32 4 2 C4 4.31 4 6.62 4 9 C3.34 7.68 2.68 6.36 2 5 C1.67 5.66 1.34 6.32 1 7 C0.34 7 -0.32 7 -1 7 C-1.04254356 5.00045254 -1.04080783 2.99958364 -1 1 C-0.67 0.67 -0.34 0.34 0 0 Z " fill="#8E7248" transform="translate(135,348)"/>
<path d="M0 0 C0.91007813 0.00902344 1.82015625 0.01804687 2.7578125 0.02734375 C3.45648438 0.03894531 4.15515625 0.05054688 4.875 0.0625 C4.545 0.7225 4.215 1.3825 3.875 2.0625 C1.58984375 2.4765625 1.58984375 2.4765625 -1.1875 2.6875 C-2.56615234 2.79964844 -2.56615234 2.79964844 -3.97265625 2.9140625 C-4.68292969 2.96304687 -5.39320313 3.01203125 -6.125 3.0625 C-6.455 2.4025 -6.785 1.7425 -7.125 1.0625 C-4.60024538 -0.19987731 -2.81299534 -0.03606404 0 0 Z " fill="#68410A" transform="translate(247.125,353.9375)"/>
<path d="M0 0 C4.3890815 0.51035831 7.33708062 1.52214277 11 4 C10.34 4.66 9.68 5.32 9 6 C7.02 5.34 5.04 4.68 3 4 C3 3.34 3 2.68 3 2 C2.01 2 1.02 2 0 2 C0 1.34 0 0.68 0 0 Z " fill="#6D5034" transform="translate(201,331)"/>
<path d="M0 0 C3.0625 1.25 3.0625 1.25 6 3 C6.33 3.99 6.66 4.98 7 6 C1.46153846 5.50769231 1.46153846 5.50769231 -0.875 2.9375 C-1.431875 1.9784375 -1.431875 1.9784375 -2 1 C-1.34 0.67 -0.68 0.34 0 0 Z " fill="#6B4A28" transform="translate(345,314)"/>
<path d="M0 0 C0.99 0.33 1.98 0.66 3 1 C3.33 4.63 3.66 8.26 4 12 C0.49718958 7.32958611 0.4655008 5.58600962 0 0 Z " fill="#735638" transform="translate(208,218)"/>
<path d="M0 0 C3 0 3 0 5 1 C5.625 3.0625 5.625 3.0625 6 5 C5.01 5.33 4.02 5.66 3 6 C3 5.34 3 4.68 3 4 C1.68 3.67 0.36 3.34 -1 3 C-0.67 2.01 -0.34 1.02 0 0 Z " fill="#794A16" transform="translate(268,309)"/>
<path d="M0 0 C-1.9626228 2.04795423 -3.4277307 2.94976638 -6.26953125 3.19921875 C-8.51954383 3.18858877 -10.75385562 3.12958525 -13 3 C-12.67 2.34 -12.34 1.68 -12 1 C-7.973409 0.22565558 -4.09613971 -0.12412545 0 0 Z " fill="#785B44" transform="translate(258,264)"/>
<path d="M0 0 C-1.32 0.33 -2.64 0.66 -4 1 C-4.33 2.32 -4.66 3.64 -5 5 C-6.65 5.33 -8.3 5.66 -10 6 C-8.20404732 1.26521567 -5.07984355 -1.69328118 0 0 Z " fill="#745A3E" transform="translate(329,315)"/>
<path d="M0 0 C2.0625 0.4375 2.0625 0.4375 4 1 C3.67 1.66 3.34 2.32 3 3 C-0.3 3 -3.6 3 -7 3 C-7 2.34 -7 1.68 -7 1 C-5.5459375 1.0309375 -5.5459375 1.0309375 -4.0625 1.0625 C-1.12534105 1.35618499 -1.12534105 1.35618499 0 0 Z " fill="#683E0E" transform="translate(306,316)"/>
<path d="M0 0 C0.598125 0.309375 1.19625 0.61875 1.8125 0.9375 C4.08956772 2.10209704 4.08956772 2.10209704 7 3 C7.6875 5.0625 7.6875 5.0625 8 7 C4.66272214 5.82744291 2.22562513 4.81131596 0 2 C0 1.34 0 0.68 0 0 Z " fill="#755B42" transform="translate(114,351)"/>
<path d="M0 0 C2.33944736 0.28730055 4.6739143 0.61936779 7 1 C7 1.66 7 2.32 7 3 C4.69 3 2.38 3 0 3 C-0.33 3.66 -0.66 4.32 -1 5 C-1.66 5 -2.32 5 -3 5 C-1.125 1.125 -1.125 1.125 0 0 Z " fill="#6B4018" transform="translate(421,343)"/>
<path d="M0 0 C1.98567708 0.09765625 3.97135417 0.1953125 5.95703125 0.29296875 C5.95703125 1.28296875 5.95703125 2.27296875 5.95703125 3.29296875 C2.32703125 3.29296875 -1.30296875 3.29296875 -5.04296875 3.29296875 C-2.04296875 0.29296875 -2.04296875 0.29296875 0 0 Z " fill="#6E5A45" transform="translate(384.04296875,312.70703125)"/>
<path d="M0 0 C0 0.99 0 1.98 0 3 C-0.99 3 -1.98 3 -3 3 C-3 3.66 -3 4.32 -3 5 C-4.65 5.66 -6.3 6.32 -8 7 C-6.47663111 3.31852519 -4.31953005 0 0 0 Z " fill="#735A3F" transform="translate(277,302)"/>
<path d="M0 0 C2.475 0.99 2.475 0.99 5 2 C5.33 4.31 5.66 6.62 6 9 C3.72494996 6.83328568 1.76424908 4.60436769 0 2 C0 1.34 0 0.68 0 0 Z " fill="#75583C" transform="translate(213,231)"/>
<path d="M0 0 C0.66 0.33 1.32 0.66 2 1 C2 5 2 5 0.5 6.75 C0.005 7.1625 -0.49 7.575 -1 8 C-1.66 6.68 -2.32 5.36 -3 4 C-2.01 2.68 -1.02 1.36 0 0 Z " fill="#794A1A" transform="translate(243,193)"/>
<path d="M0 0 C1.32 0.66 2.64 1.32 4 2 C4 3.32 4 4.64 4 6 C2.68 6.33 1.36 6.66 0 7 C-0.66 6.01 -1.32 5.02 -2 4 C-1.34 4 -0.68 4 0 4 C0 2.68 0 1.36 0 0 Z " fill="#7A6654" transform="translate(267,149)"/>
<path d="M0 0 C7.625 0.875 7.625 0.875 11 2 C11 2.66 11 3.32 11 4 C6.44262737 3.56179109 3.42346555 3.14958831 0 0 Z " fill="#76643C" transform="translate(275,354)"/>
<path d="M0 0 C0.66 0 1.32 0 2 0 C2 0.66 2 1.32 2 2 C2.66 2 3.32 2 4 2 C4.33 2.99 4.66 3.98 5 5 C5.66 5.33 6.32 5.66 7 6 C6.67 6.99 6.34 7.98 6 9 C0.42857143 3.85714286 0.42857143 3.85714286 0 0 Z " fill="#765942" transform="translate(221,346)"/>
<path d="M0 0 C2 2 2 2 3 5 C3.66 5.33 4.32 5.66 5 6 C5 7.32 5 8.64 5 10 C4.34 10 3.68 10 3 10 C0.4606772 6.58168085 -0.3636198 4.24223102 0 0 Z " fill="#765D3E" transform="translate(394,341)"/>
<path d="M0 0 C3 1 3 1 4.1875 2.875 C5 5 5 5 5 8 C3.68 7.67 2.36 7.34 1 7 C0.67 4.69 0.34 2.38 0 0 Z " fill="#785A32" transform="translate(277,337)"/>
<path d="M0 0 C0.99 0 1.98 0 3 0 C2.67 2.31 2.34 4.62 2 7 C1.01 7.33 0.02 7.66 -1 8 C-1.04241723 5.66705225 -1.04092937 3.33297433 -1 1 C-0.67 0.67 -0.34 0.34 0 0 Z " fill="#7B5936" transform="translate(406,325)"/>
<path d="M0 0 C4.29 0.33 8.58 0.66 13 1 C12.34 1.66 11.68 2.32 11 3 C8.66666667 3 6.33333333 3 4 3 C3.01 3.66 2.02 4.32 1 5 C0.67 3.35 0.34 1.7 0 0 Z " fill="#6E4428" transform="translate(255,153)"/>
<path d="M0 0 C0.99 0 1.98 0 3 0 C1.73058503 3.91402949 0.48832306 5.79072873 -3 8 C-3 6.68 -3 5.36 -3 4 C-2.01 4 -1.02 4 0 4 C0 2.68 0 1.36 0 0 Z " fill="#765D44" transform="translate(255,347)"/>
<path d="M0 0 C2.79828356 0.38597015 3.8205884 0.80136573 5.75 2.9375 C7 5 7 5 7 7 C5 7 5 7 3.375 5.625 C2 4 2 4 2 2 C1.34 2 0.68 2 0 2 C0 1.34 0 0.68 0 0 Z " fill="#73593A" transform="translate(99,303)"/>
<path d="M0 0 C2.97 0 5.94 0 9 0 C8.67 0.99 8.34 1.98 8 3 C5.4375 4.1875 5.4375 4.1875 3 5 C3.33 4.01 3.66 3.02 4 2 C2.68 1.34 1.36 0.68 0 0 Z " fill="#A58355" transform="translate(250,177)"/>
<path d="M0 0 C0.66 0.33 1.32 0.66 2 1 C2.40729228 3.32156597 2.74438677 5.6568787 3 8 C2.01 8.495 2.01 8.495 1 9 C0.34 8.67 -0.32 8.34 -1 8 C-0.67 5.36 -0.34 2.72 0 0 Z " fill="#753A01" transform="translate(250,159)"/>
<path d="M0 0 C0.33 0 0.66 0 1 0 C1.125 7.625 1.125 7.625 0 11 C-1.32 10.34 -2.64 9.68 -4 9 C-3.01 8.67 -2.02 8.34 -1 8 C-0.67 5.36 -0.34 2.72 0 0 Z " fill="#6A553B" transform="translate(137,337)"/>
<path d="M0 0 C1.32 0.33 2.64 0.66 4 1 C4 1.66 4 2.32 4 3 C3.38125 3.28875 2.7625 3.5775 2.125 3.875 C-0.13325765 4.93720042 -0.13325765 4.93720042 -2 7 C-2.33 6.01 -2.66 5.02 -3 4 C-2.67 3.34 -2.34 2.68 -2 2 C-1.34 2 -0.68 2 0 2 C0 1.34 0 0.68 0 0 Z " fill="#613C08" transform="translate(222,325)"/>
<path d="M0 0 C0.99 0.33 1.98 0.66 3 1 C2.38125 1.598125 1.7625 2.19625 1.125 2.8125 C-1.13676954 5.00811144 -1.13676954 5.00811144 -3 8 C-3.1875 5.125 -3.1875 5.125 -3 2 C-2.01 1.34 -1.02 0.68 0 0 Z " fill="#643C0E" transform="translate(321,320)"/>
<path d="M0 0 C1.485 0.99 1.485 0.99 3 2 C3.1875 5.125 3.1875 5.125 3 8 C2.34 7.01 1.68 6.02 1 5 C0.34 5 -0.32 5 -1 5 C-0.67 3.35 -0.34 1.7 0 0 Z " fill="#6D4D27" transform="translate(339,349)"/>
<path d="M0 0 C-0.33 0.99 -0.66 1.98 -1 3 C-3.0625 3.6875 -3.0625 3.6875 -5 4 C-5 3.34 -5 2.68 -5 2 C-5.66 1.67 -6.32 1.34 -7 1 C-4.53721199 -0.231394 -2.7204945 -0.07159196 0 0 Z " fill="#743C01" transform="translate(422,315)"/>
<path d="M0 0 C0.66 0 1.32 0 2 0 C2.125 2.375 2.125 2.375 2 5 C1.34 5.66 0.68 6.32 0 7 C-2.125 6.625 -2.125 6.625 -4 6 C-3.34 5.566875 -2.68 5.13375 -2 4.6875 C-1.01 3.8521875 -1.01 3.8521875 0 3 C0 2.01 0 1.02 0 0 Z " fill="#71563D" transform="translate(228,159)"/>
<path d="M0 0 C0.99 0.33 1.98 0.66 3 1 C2.01 3.97 1.02 6.94 0 10 C-1.00000429 5.99998285 -0.80688405 3.94476647 0 0 Z " fill="#684218" transform="translate(244,143)"/>
<path d="M0 0 C0.99 0.33 1.98 0.66 3 1 C2.01 3.97 1.02 6.94 0 10 C-1.231394 6.30581799 -0.64432764 3.7943739 0 0 Z " fill="#7F6448" transform="translate(267,241)"/>
<path d="M0 0 C0.99 0.33 1.98 0.66 3 1 C1.515 4.465 1.515 4.465 0 8 C-0.66 7.01 -1.32 6.02 -2 5 C-1.125 2.3125 -1.125 2.3125 0 0 Z " fill="#715637" transform="translate(271,234)"/>
<path d="M0 0 C0 0.66 0 1.32 0 2 C-1.65 2.33 -3.3 2.66 -5 3 C-5.33 2.01 -5.66 1.02 -6 0 C-3 -1 -3 -1 0 0 Z " fill="#723D04" transform="translate(262,151)"/>
<path d="M0 0 C2.475 0.495 2.475 0.495 5 1 C5.625 2.875 5.625 2.875 6 5 C5.34 5.66 4.68 6.32 4 7 C4 5.68 4 4.36 4 3 C2.68 2.34 1.36 1.68 0 1 C0 0.67 0 0.34 0 0 Z " fill="#8F8074" transform="translate(245,142)"/>
</svg>
